<?xml version="1.0" encoding="UTF-8"?><svg id="Layer_1" xmlns="http://www.w3.org/2000/svg" viewBox="0 0 21.27 21.31"><path d="m15.25,16.87l-2.5,2.62c-1.12,1.17-2.48,1.78-4.09,1.81-1.61.04-3-.5-4.17-1.62s-1.78-2.48-1.81-4.1c-.04-1.61.5-3.01,1.62-4.18l2.5-2.62,2.28,2.17-2.49,2.62c-.52.54-.77,1.19-.76,1.93.02.74.3,1.37.84,1.89s1.19.77,1.93.75c.74-.02,1.38-.3,1.9-.85l2.49-2.62,2.28,2.17Zm-5.57-.89l-1.74-1.66,6.32-6.62,1.74,1.66-6.32,6.62Zm7.47-1.1l-2.28-2.17,2.49-2.62c.52-.54.77-1.19.76-1.93-.02-.74-.3-1.37-.84-1.89s-1.19-.77-1.93-.75c-.74.02-1.38.3-1.9.85l-2.49,2.62-2.28-2.17,2.5-2.62c1.12-1.17,2.48-1.78,4.09-1.81,1.61-.04,3,.5,4.17,1.62s1.78,2.48,1.81,4.1c.04,1.61-.5,3.01-1.62,4.18l-2.5,2.62Z"/><rect x="3.17" y="1.51" width="1.91" height="5.48" rx=".87" ry=".87" transform="translate(-1.8 4.16) rotate(-45)"/><rect x="6.74" y="0" width="1.91" height="5.48" rx=".87" ry=".87"/><rect x="1.78" y="5.12" width="1.91" height="5.48" rx=".87" ry=".87" transform="translate(-5.12 10.6) rotate(-90)"/></svg>